<svg id="Calque_1" data-name="Calque 1" xmlns="http://www.w3.org/2000/svg" viewBox="0 0 765.23 472.93"><defs><style>.cls-1{fill:#de424d;}.cls-2{fill:#545454;}.cls-3{fill:#bd4650;}.cls-4{fill:#a1333c;}.cls-5{fill:#fc606b;}.cls-6{fill:#fff;}.cls-7{fill:#606060;}</style></defs><path class="cls-1" d="M429.49,182.85H394.83l-6.6,17.55h-9.6l29.09-75.95h8.87l29.1,76h-9.6Zm-3.2-8.55-14.13-38L398,174.3Z"/><path class="cls-1" d="M494.67,191.84v8.56H453.72V124.45h8.87v67.39Z"/><path class="cls-1" d="M545,191.84v8.56H504.77V124.45h39.31V133H513.64v25h25.9v8.45h-25.9v25.35Z"/><path class="cls-1" d="M597.19,200.4l-17.12-27H564.49v27h-8.87V124.45h23.62c15.48,0,25,10.27,25,24.71,0,11.34-5.78,19.68-15.58,22.89l18.26,28.35Zm-32.7-35.09h13.72c10.32,0,16.92-5.45,16.92-16.15S588.53,133,578.21,133H564.49Z"/><path class="cls-1" d="M656.91,133H637.52v67.4h-8.87V133h-19.4v-8.55h47.66Z"/><path class="cls-1" d="M706.72,191.84v8.56H666.49V124.45H705.8V133H675.37v25h25.89v8.45H675.37v25.35Z"/><path class="cls-2" d="M95.37,176.13c-53.6,46.92-60.78,126.4-16,177.52s124.48,54.54,178.08,7.62c47.38-41.47,58.48-108.38,29.5-158.67l10.44-9.14,32.5,37.12,27.61-24.16L325,169.29,371,129,340.59,94.32l-46,40.26L262.1,97.46l-27.61,24.16L267,158.75l-10.45,9.14C210.54,132.51,142.75,134.66,95.37,176.13ZM254.1,200.69a94,94,0,0,1,13,19.24c20.32,39.72,10.78,90.81-25.87,122.89-42.91,37.56-106.75,34.84-142.58-6.09S68.6,232.14,111.51,194.58c36.65-32.08,88.55-34.78,125.24-9.36A93.3,93.3,0,0,1,254.1,200.69Z"/><path class="cls-3" d="M111.57,331.8c15.7,14.41,35.94,24.71,58.13,26.56S216,353,232.63,337.05c7.28-6.95,13-15.34,20.67-21.93l.51-.42c6.94-5.85,15.18-10.21,21.37-16.81,7.07-7.54,11.31-17.84,20.2-23.18,7.4-4.44,16.35-4.39,24.66-6.32a54.11,54.11,0,0,0,34.54-26.16c.8-1.45,1.54-3.11,1.13-4.63a6.21,6.21,0,0,0-2.42-2.94c-5.82-4.62-11.87-9.36-19.32-11.09s-16.7.36-21.18,6.92c-1.39,2-2.24,4.33-3.63,6.34a30.32,30.32,0,0,1-6.66,6.42c-10.18,8-21.63,16.45-34.17,16.16-17.8-.41-26.2-17.08-42.53-22.93,5.66-7.83,4.63-18.78,2.79-28.42s-7.37-18.69-16.29-22.91c-9.82-4.65-21.88-2.87-33.11-1l-27.1,4.51c-2.76.46-5.72.89-8.13-.23-3.92-1.82-4.73-6.73-6.33-10.67a21.91,21.91,0,0,0-13.46-12.46c-3.71-1.24-8.16-1.39-11.74.43a10.45,10.45,0,0,0-2,1.26c-3.85,3.13-4.92,8.38-5,13.08-.16,11.46,3.82,23,0,34.09a35.09,35.09,0,0,1-3,6.37c-3,5.07-7,9.76-10,14.76a31.57,31.57,0,0,0-4.07,9.31c-1.86,7.93.74,15.77,2.82,23.35a173.72,173.72,0,0,1,5.4,29.82c.57,6.18.86,12.53,3.08,18.24C102.05,322.22,106.66,327.28,111.57,331.8Z"/><path class="cls-1" d="M81.8,239.22c2.39-2.9,4.67-5.66,6.69-8.33,5.61-7.37,9.29-14,8.22-20.88-1.15-7.51-7.64-12.64-11.46-19.08-4.93-8.33-5.25-18.73-8.62-27.86a42.72,42.72,0,0,0-19.58-22.58,24.85,24.85,0,0,0-4.88-2c-3.62-1.06-7.49-1.13-10.74,1a13.62,13.62,0,0,0-5.36,8.1c-2.09,7.94.72,15.88,3.51,23.25,6.43,17,13.34,34.74,27.36,46.36,3.62,3,7.69,5.56,10.8,9.06S83,234.46,81.8,239.22Z"/><path class="cls-1" d="M105.5,159.8a15.32,15.32,0,0,0,6.62,4.25c4.57,1.31,8.35-.72,10.72-1.52,3.44-1.15,6.68-3.77,7.58-7.17s-.66-6.8-1.62-10.1c-5.06-17.68,8.12-39.16-.31-55.36-3.38-6.48-10.19-10.85-17.71-11.84a24.28,24.28,0,0,0-7.46.14c-4.95.87-10,3.44-12.53,7.8-3.85,6.7-.49,14.41,1.41,21.44,2.41,8.81,2.38,18.23,3.45,27.38S99.16,153.32,105.5,159.8Z"/><path class="cls-1" d="M159.08,174.29a14.62,14.62,0,0,0,6,3.89c7,2.36,14.74-3,17.85-8s3.24-11,3.1-16.61a327.77,327.77,0,0,0-7.11-59.1c-1.37-6.58-2.94-13.23-6.4-18.89s-9.13-10.29-16-11.06l-.39,0a6.47,6.47,0,0,0-4.09.76,7.79,7.79,0,0,0-2.28,2.59c-6.95,11.25-6.74,24.94-4.32,37.22.84,4.29,1.93,8.53,3,12.78a148.19,148.19,0,0,1,4,19.12c.19,1.61.33,3.22.42,4.85.33,6.89-.47,14,.73,20.7A23,23,0,0,0,159.08,174.29Z"/><path class="cls-1" d="M200.2,170.3A38.79,38.79,0,0,0,207,176c9.33,6,17.55,4.23,23.08-.38,6.84-5.71,10.12-14.51,11.2-23s.32-16.86.73-25.3c.54-10.87,3-21.75,3.08-32.59S242.27,72.59,234,65.94a14.81,14.81,0,0,0-3.18-2,8.62,8.62,0,0,0-4.71-.81c-4.31.57-7.36,4.65-9.45,8.48C200.15,101.9,207.17,137.32,200.2,170.3Z"/><path class="cls-4" d="M52.17,138.45c-3.62-1.06-7.49-1.13-10.74,1a13.62,13.62,0,0,0-5.36,8.1c-2.09,7.94.72,15.88,3.51,23.25,6.43,17,13.34,34.74,27.36,46.36,3.62,3,7.69,5.56,10.8,9.06s5.22,8.28,4.06,13c2.39-2.9,4.67-5.66,6.69-8.33-6.25-6.73-13.22-13-19.33-19.84A123,123,0,0,1,44.58,169.3c-2.23-6.42-3.93-13.46-1.82-20.23A17.81,17.81,0,0,1,52.17,138.45Z"/><path class="cls-4" d="M111.57,331.8c15.7,14.41,35.94,24.71,58.13,26.56S216,353,232.63,337.05c7.28-6.95,13-15.34,20.67-21.93l.51-.42c-.07-.51-.14-1-.23-1.53-22.17,9.54-42.24,25.6-65.72,29.66a67.31,67.31,0,0,1-52.13-12.91c-14.18-11-23.36-27.41-26.62-45.16-1.85-10.07-1.9-20.62-5.2-30.22-2.49-7.23-6.64-13.47-11.52-19.25a31.57,31.57,0,0,0-4.07,9.31c-1.86,7.93.74,15.77,2.82,23.35a173.72,173.72,0,0,1,5.4,29.82c.57,6.18.86,12.53,3.08,18.24C102.05,322.22,106.66,327.28,111.57,331.8Z"/><path class="cls-4" d="M105.5,159.8a15.32,15.32,0,0,0,6.62,4.25c-3.43-17.81-9.66-34.85-13.66-52.52-1.59-7-2.8-14.52-.27-21.59,2-5.53,7-10.55,12.59-11.88a24.28,24.28,0,0,0-7.46.14c-4.95.87-10,3.44-12.53,7.8-3.85,6.7-.49,14.41,1.41,21.44,2.41,8.81,2.38,18.23,3.45,27.38S99.16,153.32,105.5,159.8Z"/><path class="cls-4" d="M145.41,105.09c.84,4.29,1.93,8.53,3,12.78a143.48,143.48,0,0,1-.88-30.61c.43-5.71,1.26-11.56,4-16.77a22.68,22.68,0,0,1,4.55-6,6.47,6.47,0,0,0-4.09.76,7.79,7.79,0,0,0-2.28,2.59C142.78,79.12,143,92.81,145.41,105.09Z"/><path class="cls-4" d="M159.08,174.29a23.94,23.94,0,0,0,1.27-11.53c-.72-5.81-3-11.19-5-16.63q-1.64-4.51-2.94-9.14c.19,1.61.33,3.22.42,4.85.33,6.89-.47,14,.73,20.7A23,23,0,0,0,159.08,174.29Z"/><path class="cls-4" d="M200.2,170.3A38.79,38.79,0,0,0,207,176a14.79,14.79,0,0,0,1.87-5.09c5.42-25.13,5-50.71,9.55-75.93,2-10.83,5.41-22.33,12.37-31a8.62,8.62,0,0,0-4.71-.81c-4.31.57-7.36,4.65-9.45,8.48C200.15,101.9,207.17,137.32,200.2,170.3Z"/><path class="cls-1" d="M111.59,190.59c-1.71-4.35,3.45-9.51,8.37-9.61s9,3.22,11.85,6.88c2.08,2.65,3.86,5.63,6.7,7.51,5.11,3.39,12.21,2.37,18.59,1.16,19.1-3.63,40.18-7.64,56,1.73,3.57,2.11,6.81,5,8.45,8.73,5.6,12.86-8.7,30.82-.16,41.88,2.82,3.66,7.51,5.4,12,7l18.08,6.42c9.54,3.39,20.62,6.67,30,1.57,1.13-.62,2.33-1.37,3.56-1.23,2.9.33,2.56,4.5,1.32,7.19-9.44,20.41-28.94,36.73-50.9,42.6-6.42,1.71-13,2.58-19.35,4.57-7.12,2.23-13.82,5.82-20.88,8.25-15.75,5.42-33.18,4.71-47.45-1.93a55.93,55.93,0,0,1-29.77-34c-4-13.09-3.27-27.73-8.69-40.25-1.9-4.38-4.57-8.56-4.93-13.41-.53-6.95,3.72-13.62,6.77-20.19S115.54,200.66,111.59,190.59Z"/><path class="cls-5" d="M286.65,258.46c14.24-6,22.56-21.8,36.62-28.27a14.22,14.22,0,0,1,5.56-1.52,16.33,16.33,0,0,1,6.58,1.74l12.77,5.42a6.92,6.92,0,0,1,3.36,2.29c1,1.63.49,3.88-.53,5.66-2.72,4.69-8.19,7.17-13.26,9.25q-19.08,7.8-38.51,14.58a8.85,8.85,0,0,1-4.39.73C290.6,267.55,290.7,261.47,286.65,258.46Z"/><path class="cls-5" d="M157.89,69.26c6.4,3.09,10.74,9.12,13.19,15.69s3.21,13.71,4,20.78q2.1,19.74,4.18,39.48c.74,6.95,1.38,14.41-2.13,20.84a7.31,7.31,0,0,1-2.61,3,5.45,5.45,0,0,1-6.35-1.12c-1.58-1.57-2.33-3.76-3-5.88-7.67-23.1-15.43-46.71-14.84-71.57C150.44,82.72,151.94,74,157.89,69.26Z"/><path class="cls-5" d="M111.82,82.54a26.23,26.23,0,0,1,12.72,24.63c-.31,3.82-1.41,7.59-2.12,11.39a55.31,55.31,0,0,0,1.26,25.9c1,3.33,2,7.55-.78,10a5.93,5.93,0,0,1-6.38.59,11.16,11.16,0,0,1-4.37-4.63c-3.71-6.41-4.9-14-6-21.46l-3.44-22.62c-.59-3.91-1.19-7.91-.44-11.9S105.31,86.4,111.82,82.54Z"/><path class="cls-5" d="M231.93,72.28c7,8,8.3,19.51,7.38,30.39s-3.8,21.72-4.13,32.59c-.17,5.6.33,11.17-.29,16.77s-2.52,11.42-6.71,15.58a10.13,10.13,0,0,1-4.8,2.91c-3.26.71-6.46-1.24-8-3.94s-1.83-6-1.87-9.2c-.28-21.94,8-44,7.7-65.95,0-3.35-.27-6.77.81-10S225.87,75,231.93,72.28Z"/><path class="cls-5" d="M52.3,147.21c9.9,1.8,15,11.78,18.82,20.71l16.45,38.46c1.17,2.74,2.27,6.12.35,8.68-2.48,3.29-7.67,2.27-10.91.16-7.79-5.11-12-13.87-15.89-22.26L49.49,167.87c-1.33-2.86-2.67-5.8-3-9S47.21,152.09,52.3,147.21Z"/><path class="cls-5" d="M118.66,230.1c19.67,9,24.92,35,43.84,45.27,14.63,7.9,33.41,4.33,50.68,1.62a423.81,423.81,0,0,1,42.2-4.48c4.41-.25,9.58-.06,11.78,3.48,1.81,2.9.66,7.05-1.8,9.81s-5.94,4.42-9.36,5.82c-14.81,6.07-30.59,9-45.37,15.14-12,5-23.8,12.23-36.57,13.05-15.69,1-29.78-8.22-38.34-20.34s-12.58-26.86-16.47-41.32l-3.56-13.26c-.81-3-1.63-6.29-.62-9.41C116.54,230.87,121.8,226.59,118.66,230.1Z"/><path class="cls-5" d="M125.92,208.68c1.56,5.75,3.19,11.64,6.71,16.43,3,4,7.05,7,10.7,10.42,12.23,11.41,20.38,28.25,36,34.19,11.17,4.24,23.83,1.77,34.91-2.73,2-.82,4.23-2,4.72-4.08a7,7,0,0,0-.62-4c-3.42-9.25-7.33-18.82-6.24-28.61.53-4.67,2.19-9.31,1.5-14-.72-4.81-4-9-8-11.73s-8.72-4.28-13.44-5.43c-4.52-1.1-9.19-1.91-13.82-1.38-4.35.49-8.49,2.14-12.73,3.24a52.1,52.1,0,0,1-21.88.92c-3.8-.65-7.7-1.73-11.46-.87S125.12,205.73,125.92,208.68Z"/><rect class="cls-1" x="390.91" y="210.3" width="323.92" height="113.61" transform="translate(-8.95 19.38) rotate(-1.99)"/><path class="cls-6" d="M380.61,213.88l31.6-1.09,31.26,84.36,25.66-86.34,31.43-1.1L460.49,333.93,429.22,335Z"/><path class="cls-6" d="M598.2,292.12c.78,22.29-13.44,37.49-39.91,38.41l-44.68,1.55-4.26-122.67,45.33-1.58c19-.66,33.21,11.47,33.81,28.75a27.14,27.14,0,0,1-13.07,24.5C585.46,264,597.53,272.77,598.2,292.12Zm-58.81-57.29.67,19.35,10.59-.37c7.12-.24,10.12-4.33,9.93-10-.23-6.39-4.15-9.54-11.26-9.3Zm29.74,55c-.27-7.77-4.6-13.16-14.86-12.8l-13.4.47,1,27.12,13.73-.48C565.31,303.81,569.42,298.14,569.13,289.84Z"/><path class="cls-6" d="M669.38,328.39c-32.93,1.15-61.91-22.41-63.24-60.94s26.43-64.06,59.52-65.21c16.88-.59,37,5.29,49.8,26.81L695,244.82c-6.45-9.3-15.57-14.17-27.81-13.74-17.87.62-31.83,13.56-31.08,35.33s14.8,34.78,33.33,34.13c10.59-.37,20.37-5,23.71-18.29l-24.15.84L668.1,258l52.45-1.82C729,300.2,702.47,327.24,669.38,328.39Z"/><path class="cls-7" d="M421.62,385.35c-11.57.41-21.58-8.42-22.05-21.85s8.91-22.93,20.6-23.34a19.09,19.09,0,0,1,16.66,8l-3.57,3a14.92,14.92,0,0,0-12.8-5.87c-9,.31-16.06,7.43-15.69,18s7.94,17.39,16.92,17.07c6.91-.24,13-4.6,13.64-14l-11.87.41-.16-4.52,16.84-.59C441.7,376,432.73,385,421.62,385.35Z"/><path class="cls-7" d="M471.35,367.26l-1-28.23,5.08-.17,1,28.17c.27,7.79,4.94,11.16,10.38,11s9.8-3.87,9.53-11.67l-1-28.16,5.07-.18,1,28.23c.37,10.52-6,16.57-14.43,16.86S471.72,377.78,471.35,367.26Z"/><path class="cls-7" d="M531.9,336.9l5.08-.18,1.53,43.95-5.08.17Z"/><path class="cls-7" d="M568.45,335.63l5.14-.18,24.72,34.21h.3l-1.22-35,5.08-.18L604,378.39l-5.13.18-24.73-34.22h-.29l1.22,35-5.09.18Z"/><path class="cls-7" d="M658.32,371.54l.17,5-23,.8-1.52-43.95,22.5-.79.17,4.95-17.42.61.5,14.49,14.82-.52.18,4.9-14.82.51.5,14.67Zm-9.47-42.74-4.32.15,3.33-9.72,4.61-.16Z"/><path class="cls-7" d="M711.93,369.68l.17,4.95-23,.8-1.53-43.94,22.5-.79.17,4.95-17.42.61.51,14.48,14.82-.51.17,4.89-14.82.52L694,370.3Z"/></svg>